<svg width="332" height="55" viewBox="0 0 332 55" fill="none" xmlns="http://www.w3.org/2000/svg">
<path fill-rule="evenodd" clip-rule="evenodd" d="M69.9319 43.3148C71.272 44.3636 71.9438 45.8541 71.9438 47.7862C71.9438 50.3635 70.9624 51.6504 69.0033 51.6504C68.0923 51.6504 67.3853 51.2157 66.8789 50.3393C66.3724 49.4664 66.0664 48.0001 65.9644 45.9369L63.1927 46.4061C63.4073 49.2698 64.0087 51.2605 64.9936 52.3818C65.9855 53.4963 67.3607 54.0517 69.1159 54.0517C70.8675 54.0517 72.2568 53.5756 73.2803 52.6303C74.3109 51.6849 74.8279 50.0461 74.8279 47.7172C74.8279 46.413 74.6345 45.2814 74.2511 44.3222C73.8642 43.3665 73.4632 42.673 73.0412 42.2383C72.6261 41.7967 72.0739 41.3344 71.381 40.8444L68.4546 38.7053C67.7125 38.1188 67.2095 37.4598 66.9492 36.7318C66.6854 36.0073 66.5553 35.0619 66.5553 33.9027C66.5553 31.2633 67.4276 29.9419 69.1721 29.9419C70.9167 29.9419 71.8382 31.4945 71.9438 34.5927L74.7576 33.9717C74.5606 31.5255 73.9873 29.8384 73.0412 28.9068C72.102 27.9684 70.7831 27.4991 69.0877 27.4991C67.3994 27.4991 66.0664 28.0063 65.0921 29.0172C64.1143 30.0212 63.6289 31.7843 63.6289 34.3029C63.6289 37.3322 64.7403 39.6231 66.9633 41.1757L69.9319 43.3148ZM95.209 28.0511H92.2826V46.4475C92.2826 48.4072 92.0293 49.77 91.5229 50.5325C91.0164 51.2984 90.3199 51.6779 89.4406 51.6779C88.5683 51.6779 87.8825 51.2984 87.3865 50.5325C86.8976 49.77 86.6549 48.4072 86.6549 46.4475V28.0511H83.7285V45.8954C83.7285 48.9799 84.2245 51.1087 85.2199 52.2852C86.2223 53.4651 87.6398 54.0517 89.4688 54.0517C91.2977 54.0517 92.7082 53.4651 93.7036 52.2852C94.706 51.1087 95.209 48.9799 95.209 45.8954V28.0511ZM104.886 53.4996V28.0511H107.855V51.1673H113.595V53.4996H104.886ZM135.462 50.574C134.991 49.8391 134.759 48.4728 134.759 46.4752V35.2138C134.759 33.1713 134.991 31.7705 135.462 31.0045C135.93 30.2421 136.567 29.8591 137.376 29.8591C138.181 29.8591 138.786 30.1593 139.191 30.7561C139.602 31.3461 139.88 32.4191 140.021 33.9717L142.736 33.3231C142.539 31.1357 141.997 29.6176 141.118 28.7688C140.246 27.9235 138.973 27.4992 137.305 27.4992C135.635 27.4992 134.302 28.0926 133.31 29.2795C132.325 30.4663 131.832 32.6468 131.832 35.821V45.7161C131.832 48.8903 132.325 51.0777 133.31 52.2715C134.302 53.4583 135.638 54.0518 137.319 54.0518C138.997 54.0518 140.288 53.5584 141.188 52.5751C142.096 51.5918 142.659 49.8632 142.877 47.386L140.288 47.0686C140.137 48.8627 139.845 50.084 139.416 50.7258C138.983 51.3606 138.332 51.678 137.46 51.678C136.595 51.678 135.93 51.3123 135.462 50.574ZM160.187 53.4996L159.048 46.8753H153.814L152.703 53.4996H149.734L154.475 28.0511H158.415L163.156 53.4996H160.187ZM156.445 31.7221L154.222 44.5568H158.64L156.445 31.7221ZM169.489 28.0511V30.3696H173.09V53.4996H176.017V30.3696H179.618V28.0511H169.489ZM196.401 53.4996L195.261 46.8753H190.027L188.916 53.4996H185.947L190.689 28.0511H194.628L199.369 53.4996H196.401ZM192.658 31.7221L190.435 44.5568H194.853L192.658 31.7221ZM207.559 28.0511V53.4996H210.527V43.7563H212.342L215.227 53.4996H218.28L215.198 43.0939C217.027 42.1003 217.942 39.7645 217.942 36.0831V35.9037C217.942 32.9435 217.435 30.8941 216.422 29.7624C215.409 28.6238 213.988 28.0511 212.159 28.0511H207.559ZM215.015 35.3517V36.442C215.015 39.7921 214.062 41.4654 212.159 41.4654H210.527V30.3696H212.159C213.049 30.3696 213.749 30.7354 214.256 31.4599C214.762 32.1879 215.015 33.4852 215.015 35.3517ZM227.129 53.4996V28.0511H230.098V53.4996H227.129ZM240.029 53.4996H242.927V34.9239L248.963 53.4996H252.044V28.0511H249.146V46.6683L243.11 28.0511H240.029V53.4996ZM264.94 41.976V51.1673H271.383V53.4996H261.971V28.0511H271.271V30.3696H264.94V39.6437H270.722V41.976H264.94ZM280.541 53.4996H283.439V34.9239L289.475 53.4996H292.556V28.0511H289.658V46.6683L283.622 28.0511H280.541V53.4996ZM310.461 47.7862C310.461 45.8541 309.789 44.3636 308.449 43.3148L305.48 41.1757C303.257 39.6231 302.146 37.3322 302.146 34.3029C302.146 31.7843 302.631 30.0212 303.609 29.0172C304.583 28.0063 305.916 27.4992 307.604 27.4992C309.3 27.4992 310.619 27.9684 311.558 28.9068C312.504 29.8384 313.077 31.5255 313.274 33.9717L310.461 34.5927C310.355 31.4945 309.433 29.9419 307.689 29.9419C305.944 29.9419 305.072 31.2633 305.072 33.9027C305.072 35.062 305.202 36.0073 305.466 36.7318C305.726 37.4598 306.229 38.1188 306.971 38.7053L309.898 40.8445C310.591 41.3344 311.143 41.7967 311.558 42.2383C311.98 42.6731 312.381 43.3665 312.768 44.3222C313.151 45.2814 313.345 46.4131 313.345 47.7172C313.345 50.0461 312.828 51.6849 311.797 52.6303C310.774 53.5756 309.384 54.0518 307.633 54.0518C305.877 54.0518 304.502 53.4963 303.51 52.3819C302.525 51.2606 301.924 49.2698 301.709 46.4062L304.481 45.9369C304.583 48.0001 304.889 49.4665 305.396 50.3394C305.902 51.2157 306.609 51.6504 307.52 51.6504C309.479 51.6504 310.461 50.3635 310.461 47.7862ZM325.467 51.1673V41.976H331.25V39.6437H325.467V30.3696H331.798V28.0511H322.499V53.4996H331.911V51.1673H325.467Z" fill="#564036"/>
<path d="M74.5086 19.7414H64.7761V6.19715H74.4119V7.1259H65.7823V12.4469H73.5412V13.3756H65.7823V18.8126H74.5086V19.7414ZM84.1235 17.0519C84.1235 17.4905 84.0333 17.8903 83.8527 18.2515C83.685 18.5998 83.4463 18.9029 83.1368 19.1609C82.8272 19.406 82.466 19.5995 82.0532 19.7414C81.6404 19.8704 81.1954 19.9349 80.7181 19.9349C79.9958 19.9349 79.2734 19.8059 78.5511 19.5479C77.8287 19.277 77.2031 18.9287 76.6742 18.5031L77.2353 17.7485C77.7771 18.1612 78.3447 18.4837 78.938 18.7159C79.5314 18.9352 80.1441 19.0448 80.7762 19.0448C81.4469 19.0448 82.0081 18.8771 82.4595 18.5418C82.9239 18.2064 83.1561 17.7485 83.1561 17.168V17.1293C83.1561 16.8455 83.0852 16.6004 82.9433 16.394C82.8014 16.1876 82.6079 16.0071 82.3628 15.8523C82.1177 15.6975 81.8404 15.5685 81.5308 15.4653C81.2212 15.3621 80.8923 15.2589 80.544 15.1557C80.1441 15.0396 79.7378 14.9171 79.325 14.7881C78.9251 14.6591 78.564 14.4978 78.2415 14.3043C77.919 14.098 77.6546 13.8464 77.4482 13.5497C77.2547 13.2531 77.1579 12.8854 77.1579 12.4469V12.4082C77.1579 12.0083 77.2353 11.6471 77.3901 11.3246C77.5578 10.9892 77.7836 10.699 78.0673 10.4539C78.3511 10.2088 78.693 10.0218 79.0928 9.8928C79.4927 9.7509 79.9313 9.67996 80.4086 9.67996C81.0019 9.67996 81.6082 9.7767 82.2274 9.97019C82.8594 10.1637 83.4205 10.4281 83.9107 10.7635L83.4076 11.5568C82.9562 11.2601 82.466 11.0215 81.9371 10.8409C81.4211 10.6603 80.8987 10.57 80.3699 10.57C79.6862 10.57 79.138 10.7377 78.7252 11.0731C78.3253 11.3956 78.1254 11.8019 78.1254 12.2921V12.3308C78.1254 12.6016 78.2028 12.8403 78.3576 13.0467C78.5124 13.2402 78.7123 13.4078 78.9574 13.5497C79.2154 13.6916 79.5121 13.8206 79.8474 13.9367C80.1828 14.0399 80.5246 14.1431 80.8729 14.2463C81.2728 14.3624 81.6662 14.4914 82.0532 14.6333C82.4402 14.7623 82.7885 14.9364 83.0981 15.1557C83.4076 15.3621 83.6527 15.6136 83.8333 15.9103C84.0268 16.207 84.1235 16.5746 84.1235 17.0132V17.0519ZM96.3147 22.8372H95.3666V17.5356C95.1473 17.8581 94.9023 18.1677 94.6314 18.4644C94.3734 18.761 94.0767 19.019 93.7413 19.2383C93.4188 19.4576 93.0512 19.6318 92.6384 19.7607C92.2386 19.9026 91.7935 19.9736 91.3034 19.9736C90.71 19.9736 90.1231 19.8575 89.5426 19.6253C88.975 19.3931 88.4655 19.0577 88.014 18.6192C87.5626 18.1806 87.1949 17.6453 86.9112 17.0132C86.6403 16.3682 86.5048 15.6459 86.5048 14.8461V14.8074C86.5048 14.0077 86.6403 13.2918 86.9112 12.6597C87.1949 12.0147 87.5626 11.473 88.014 11.0344C88.4655 10.5829 88.975 10.2411 89.5426 10.0089C90.1231 9.7638 90.71 9.64126 91.3034 9.64126C91.7935 9.64126 92.245 9.70576 92.6578 9.83475C93.0706 9.96374 93.4382 10.1379 93.7607 10.3572C94.0961 10.5765 94.3927 10.828 94.6507 11.1118C94.9216 11.3956 95.1602 11.6922 95.3666 12.0018V9.87345H96.3147V22.8372ZM95.4247 14.8268V14.7881C95.4247 14.156 95.3086 13.582 95.0764 13.066C94.8571 12.5371 94.5604 12.0921 94.1863 11.7309C93.8123 11.3569 93.3801 11.0666 92.89 10.8602C92.4127 10.6539 91.9161 10.5507 91.4001 10.5507C90.8583 10.5507 90.3488 10.6474 89.8715 10.8409C89.4072 11.0344 89.0008 11.3117 88.6526 11.6729C88.3043 12.0341 88.0269 12.4791 87.8206 13.008C87.6271 13.5239 87.5303 14.1109 87.5303 14.7687V14.8074C87.5303 15.4524 87.6335 16.0393 87.8399 16.5682C88.0463 17.097 88.3236 17.5485 88.6719 17.9226C89.0331 18.2838 89.4459 18.5676 89.9102 18.7739C90.3875 18.9674 90.8841 19.0642 91.4001 19.0642C91.9161 19.0642 92.4127 18.961 92.89 18.7546C93.3801 18.5482 93.8123 18.258 94.1863 17.8839C94.5604 17.5098 94.8571 17.0648 95.0764 16.5488C95.3086 16.0329 95.4247 15.4588 95.4247 14.8268ZM108.179 19.7414H107.231V17.9032C106.895 18.4837 106.444 18.9739 105.876 19.3738C105.309 19.7736 104.573 19.9736 103.67 19.9736C103.051 19.9736 102.497 19.8768 102.006 19.6833C101.516 19.477 101.097 19.1932 100.749 18.832C100.413 18.4708 100.155 18.0451 99.9747 17.555C99.807 17.0519 99.7232 16.5037 99.7232 15.9103V9.87345H100.671V15.7362C100.671 16.7552 100.942 17.5743 101.484 18.1935C102.026 18.7997 102.8 19.1029 103.806 19.1029C104.283 19.1029 104.728 19.019 105.141 18.8513C105.567 18.6708 105.934 18.4257 106.244 18.1161C106.553 17.8065 106.792 17.4389 106.96 17.0132C107.14 16.5746 107.231 16.0973 107.231 15.5814V9.87345H108.179V19.7414ZM119.484 19.7414H118.555V18.0967C118.387 18.3289 118.181 18.5611 117.936 18.7933C117.704 19.0126 117.433 19.2125 117.123 19.3931C116.814 19.5608 116.459 19.6962 116.059 19.7994C115.672 19.9155 115.246 19.9736 114.782 19.9736C114.318 19.9736 113.86 19.9091 113.408 19.7801C112.957 19.6511 112.55 19.4576 112.189 19.1996C111.828 18.9416 111.531 18.6192 111.299 18.2322C111.08 17.8452 110.97 17.3937 110.97 16.8778V16.8391C110.97 16.3231 111.074 15.8652 111.28 15.4653C111.499 15.0654 111.796 14.73 112.17 14.4591C112.544 14.1883 112.996 13.9819 113.524 13.84C114.053 13.6981 114.64 13.6271 115.285 13.6271C115.982 13.6271 116.582 13.6658 117.085 13.7432C117.588 13.8206 118.078 13.9238 118.555 14.0528V13.6271C118.555 12.621 118.265 11.8664 117.684 11.3633C117.117 10.8602 116.324 10.6087 115.304 10.6087C114.698 10.6087 114.144 10.6861 113.64 10.8409C113.137 10.9828 112.66 11.1698 112.209 11.402L111.86 10.57C112.402 10.312 112.95 10.1056 113.505 9.95084C114.06 9.79605 114.679 9.71865 115.363 9.71865C116.64 9.71865 117.646 10.0411 118.381 10.6861C119.116 11.3311 119.484 12.2985 119.484 13.5884V19.7414ZM118.574 16.0458V14.9235C118.162 14.8203 117.678 14.7236 117.123 14.6333C116.569 14.5301 115.937 14.4785 115.227 14.4785C114.182 14.4785 113.376 14.6913 112.808 15.117C112.254 15.5298 111.976 16.0844 111.976 16.781V16.8197C111.976 17.1809 112.054 17.5034 112.209 17.7872C112.363 18.058 112.57 18.2902 112.828 18.4837C113.099 18.6772 113.408 18.8255 113.757 18.9287C114.105 19.0319 114.466 19.0835 114.84 19.0835C115.343 19.0835 115.82 19.0126 116.272 18.8707C116.723 18.7159 117.117 18.5095 117.452 18.2515C117.8 17.9806 118.071 17.6582 118.265 17.2841C118.471 16.91 118.574 16.4972 118.574 16.0458ZM132.065 19.7414H131.117V17.5356C130.897 17.8581 130.652 18.1677 130.382 18.4644C130.124 18.761 129.827 19.019 129.491 19.2383C129.169 19.4576 128.801 19.6318 128.389 19.7607C127.989 19.9026 127.544 19.9736 127.054 19.9736C126.46 19.9736 125.873 19.8575 125.293 19.6253C124.725 19.3931 124.216 19.0577 123.764 18.6192C123.313 18.1806 122.945 17.6453 122.661 17.0132C122.39 16.3682 122.255 15.6459 122.255 14.8461V14.8074C122.255 14.0077 122.39 13.2918 122.661 12.6597C122.945 12.0147 123.313 11.473 123.764 11.0344C124.216 10.5829 124.725 10.2411 125.293 10.0089C125.873 9.7638 126.46 9.64126 127.054 9.64126C127.544 9.64126 127.995 9.70576 128.408 9.83475C128.821 9.96374 129.188 10.1379 129.511 10.3572C129.846 10.5765 130.143 10.828 130.401 11.1118C130.672 11.3956 130.91 11.6922 131.117 12.0018V5.61668H132.065V19.7414ZM131.175 14.8268V14.7881C131.175 14.156 131.059 13.582 130.827 13.066C130.607 12.5371 130.311 12.0921 129.936 11.7309C129.562 11.3569 129.13 11.0666 128.64 10.8602C128.163 10.6539 127.666 10.5507 127.15 10.5507C126.608 10.5507 126.099 10.6474 125.622 10.8409C125.157 11.0344 124.751 11.3117 124.403 11.6729C124.054 12.0341 123.777 12.4791 123.571 13.008C123.377 13.5239 123.28 14.1109 123.28 14.7687V14.8074C123.28 15.4524 123.384 16.0393 123.59 16.5682C123.796 17.097 124.074 17.5485 124.422 17.9226C124.783 18.2838 125.196 18.5676 125.66 18.7739C126.138 18.9674 126.634 19.0642 127.15 19.0642C127.666 19.0642 128.163 18.961 128.64 18.7546C129.13 18.5482 129.562 18.258 129.936 17.8839C130.311 17.5098 130.607 17.0648 130.827 16.5488C131.059 16.0329 131.175 15.4588 131.175 14.8268ZM140.988 10.7635H140.891C140.323 10.7635 139.782 10.8731 139.266 11.0924C138.75 11.2988 138.292 11.6148 137.892 12.0405C137.505 12.4533 137.195 12.9693 136.963 13.5884C136.731 14.1947 136.615 14.8977 136.615 15.6975V19.7414H135.667V9.87345H136.615V12.679C136.808 12.2405 137.053 11.8341 137.35 11.4601C137.647 11.086 137.982 10.7699 138.356 10.512C138.73 10.2411 139.137 10.0411 139.575 9.91214C140.027 9.77025 140.498 9.70576 140.988 9.71865V10.7635ZM144.614 7.30004H143.433V6.00366H144.614V7.30004ZM144.497 19.7414H143.549V9.87345H144.497V19.7414ZM155.933 19.7414H155.004V18.0967C154.837 18.3289 154.63 18.5611 154.385 18.7933C154.153 19.0126 153.882 19.2125 153.573 19.3931C153.263 19.5608 152.908 19.6962 152.508 19.7994C152.121 19.9155 151.696 19.9736 151.231 19.9736C150.767 19.9736 150.309 19.9091 149.858 19.7801C149.406 19.6511 149 19.4576 148.639 19.1996C148.277 18.9416 147.981 18.6192 147.749 18.2322C147.529 17.8452 147.42 17.3937 147.42 16.8778V16.8391C147.42 16.3231 147.523 15.8652 147.729 15.4653C147.948 15.0654 148.245 14.73 148.619 14.4591C148.993 14.1883 149.445 13.9819 149.974 13.84C150.503 13.6981 151.089 13.6271 151.734 13.6271C152.431 13.6271 153.031 13.6658 153.534 13.7432C154.037 13.8206 154.527 13.9238 155.004 14.0528V13.6271C155.004 12.621 154.714 11.8664 154.134 11.3633C153.566 10.8602 152.773 10.6087 151.754 10.6087C151.147 10.6087 150.593 10.6861 150.09 10.8409C149.587 10.9828 149.109 11.1698 148.658 11.402L148.31 10.57C148.851 10.312 149.4 10.1056 149.954 9.95084C150.509 9.79605 151.128 9.71865 151.812 9.71865C153.089 9.71865 154.095 10.0411 154.83 10.6861C155.565 11.3311 155.933 12.2985 155.933 13.5884V19.7414ZM155.024 16.0458V14.9235C154.611 14.8203 154.127 14.7236 153.573 14.6333C153.018 14.5301 152.386 14.4785 151.676 14.4785C150.632 14.4785 149.825 14.6913 149.258 15.117C148.703 15.5298 148.426 16.0844 148.426 16.781V16.8197C148.426 17.1809 148.503 17.5034 148.658 17.7872C148.813 18.058 149.019 18.2902 149.277 18.4837C149.548 18.6772 149.858 18.8255 150.206 18.9287C150.554 19.0319 150.915 19.0835 151.289 19.0835C151.792 19.0835 152.27 19.0126 152.721 18.8707C153.173 18.7159 153.566 18.5095 153.901 18.2515C154.25 17.9806 154.521 17.6582 154.714 17.2841C154.921 16.91 155.024 16.4972 155.024 16.0458ZM165.941 17.0519C165.941 17.4905 165.85 17.8903 165.67 18.2515C165.502 18.5998 165.264 18.9029 164.954 19.1609C164.644 19.406 164.283 19.5995 163.87 19.7414C163.458 19.8704 163.013 19.9349 162.535 19.9349C161.813 19.9349 161.091 19.8059 160.368 19.5479C159.646 19.277 159.02 18.9287 158.491 18.5031L159.053 17.7485C159.594 18.1612 160.162 18.4837 160.755 18.7159C161.349 18.9352 161.961 19.0448 162.593 19.0448C163.264 19.0448 163.825 18.8771 164.277 18.5418C164.741 18.2064 164.973 17.7485 164.973 17.168V17.1293C164.973 16.8455 164.902 16.6004 164.76 16.394C164.619 16.1876 164.425 16.0071 164.18 15.8523C163.935 15.6975 163.658 15.5685 163.348 15.4653C163.038 15.3621 162.709 15.2589 162.361 15.1557C161.961 15.0396 161.555 14.9171 161.142 14.7881C160.742 14.6591 160.381 14.4978 160.059 14.3043C159.736 14.098 159.472 13.8464 159.265 13.5497C159.072 13.2531 158.975 12.8854 158.975 12.4469V12.4082C158.975 12.0083 159.053 11.6471 159.207 11.3246C159.375 10.9892 159.601 10.699 159.885 10.4539C160.168 10.2088 160.51 10.0218 160.91 9.8928C161.31 9.7509 161.748 9.67996 162.226 9.67996C162.819 9.67996 163.425 9.7767 164.045 9.97019C164.677 10.1637 165.238 10.4281 165.728 10.7635L165.225 11.5568C164.773 11.2601 164.283 11.0215 163.754 10.8409C163.238 10.6603 162.716 10.57 162.187 10.57C161.503 10.57 160.955 10.7377 160.542 11.0731C160.143 11.3956 159.943 11.8019 159.943 12.2921V12.3308C159.943 12.6016 160.02 12.8403 160.175 13.0467C160.33 13.2402 160.53 13.4078 160.775 13.5497C161.033 13.6916 161.329 13.8206 161.665 13.9367C162 14.0399 162.342 14.1431 162.69 14.2463C163.09 14.3624 163.483 14.4914 163.87 14.6333C164.257 14.7623 164.606 14.9364 164.915 15.1557C165.225 15.3621 165.47 15.6136 165.651 15.9103C165.844 16.207 165.941 16.5746 165.941 17.0132V17.0519Z" fill="#564036"/>
<path fill-rule="evenodd" clip-rule="evenodd" d="M26.5001 3.07949V12.2092L16.5929 12.393C17.2589 6.93913 21.4282 3.6235 26.5001 3.07949ZM26.5001 15.2098L16.5 15.3953L16.5 26.2005H26.5001V15.2098ZM13.568 12.4491C13.5231 12.9365 13.5 13.4371 13.5 13.9506L13.5 40.4247V41.9247V43.4247L13.5 52.6748V55H43V52.6748V43.4247V41.9247V40.4247V13.9506C43 13.4368 42.9756 12.9362 42.9282 12.4491C42.2 4.96459 36.0423 0.640617 29.5001 0.0658281C29.0015 0.0220295 28.5008 0 28.0001 0C27.4972 0 26.9965 0.0224996 26.5001 0.0671786C20.0178 0.650569 14.2529 5.01544 13.568 12.4491ZM43.5 55H56.5V3.7931C56.5 3.7931 43.5 6.99356 43.5 18.195V55ZM0 55V3.7931C0 3.7931 13 6.99356 13 18.195V55H0ZM16.5 52.6748L16.5 43.4247H26.5001V52.6748H16.5ZM16.5 40.4247H26.5001V29.2005H16.5L16.5 40.4247ZM29.5001 52.6748V43.4247H40V52.6748H29.5001ZM29.5001 40.4247H40V29.2005H29.5001V40.4247ZM40 15.3953V26.2005H29.5001V15.2005L40 15.3953ZM29.5001 12.2L39.8994 12.3929C39.1832 6.97057 34.7333 3.61493 29.5001 3.07653V12.2Z" fill="#564036"/>
</svg>
